<svg width="62" height="69" viewBox="0 0 62 69" fill="none" xmlns="http://www.w3.org/2000/svg">
<g id="Capa_x0020_1">
<path id="Vector" d="M31 32.7875C28.7767 32.9357 25.2195 32.6393 24.7748 32.6393C24.182 32.6393 20.4765 31.4536 20.4765 31.4536C20.4765 31.4536 22.2551 30.7125 23.8855 30.2678C25.5159 29.8232 27.8874 29.675 28.1838 29.5267C28.4803 29.3785 30.4071 29.5267 30.4071 29.5267H31.2964H32.1857C32.1857 29.5267 34.1125 29.3785 34.409 29.5267C34.7054 29.675 37.0769 29.8232 38.7073 30.2678C40.3377 30.7125 42.1163 31.4536 42.1163 31.4536C42.1163 31.4536 38.2626 32.6393 37.818 32.6393C37.3733 32.6393 33.8161 32.7875 31.5928 32.7875H31ZM31 22.4123C30.1107 21.9677 28.9249 21.3748 27.8874 21.3748C26.257 21.523 23.8855 22.857 23.8855 22.857C23.8855 22.857 23.1444 22.1159 20.3283 24.1909C17.364 26.1177 14.5478 26.8588 14.5478 26.8588L12.0281 28.0446C12.0281 28.0446 7.87804 27.5999 7.13695 27.1553C6.39586 26.5624 5.50656 24.3391 5.50656 24.0427C5.50656 23.7463 5.35834 21.8194 4.91369 20.6337C4.46904 19.2997 3.87617 18.2622 3.87617 18.2622C3.87617 18.2622 2.83864 15.4461 1.94934 13.2228C1.06003 10.8513 1.20825 4.03334 1.20825 4.03334V0.179688C1.20825 0.179688 0.318947 11.296 0.467164 13.371C0.615382 15.4461 0.318947 20.6337 0.467164 22.7087C0.615382 24.7838 0.911817 27.5999 0.467164 29.3785C-0.125706 31.1571 0.911817 36.9376 0.911817 36.9376L1.94934 36.1965C1.94934 36.1965 1.50469 41.977 2.24577 43.7556C2.98686 45.5342 4.02438 50.4254 5.65478 53.3898L5.95121 52.204C5.95121 52.204 7.5816 55.9095 8.32269 56.6505C9.06378 57.3916 14.5478 62.7275 18.8461 64.5061C23.1444 66.2847 25.9606 67.6186 25.9606 67.6186L29.8142 68.5079L31 68.9526L32.1857 68.5079L36.0394 67.6186C36.0394 67.6186 39.0037 66.2847 43.1538 64.5061C47.4521 62.7275 52.9361 57.3916 53.6772 56.6505C54.4183 55.9095 56.0487 52.204 56.0487 52.204L56.3451 53.3898C58.1238 50.5736 59.1613 45.5342 59.7541 43.7556C60.4952 41.977 60.0506 36.1965 60.0506 36.1965L61.0881 36.9376C61.0881 36.9376 62.1256 31.1571 61.5328 29.3785C60.9399 27.5999 61.3845 24.7838 61.5328 22.7087C61.681 20.6337 61.3845 15.2979 61.5328 13.371C61.681 11.296 60.7917 0.179688 60.7917 0.179688V4.03334C60.7917 4.03334 60.9399 10.8513 60.0506 13.2228C59.1613 15.5943 58.1238 18.2622 58.1238 18.2622C58.1238 18.2622 57.5309 19.2997 57.0862 20.6337C56.6416 21.9677 56.4934 23.7463 56.4934 24.0427C56.4934 24.3391 55.6041 26.7106 54.863 27.1553C54.1219 27.7481 49.9718 28.0446 49.9718 28.0446L47.4521 26.8588C47.4521 26.8588 44.4877 26.1177 41.6716 24.1909C38.7073 22.2641 38.1144 22.857 38.1144 22.857C38.1144 22.857 35.7429 21.523 34.1125 21.3748C33.075 21.3748 31.8893 21.9677 31 22.4123Z" fill="#7B5F46"/>
</g>
</svg>
