<svg width="98" height="80" viewBox="0 0 98 80" fill="none" xmlns="http://www.w3.org/2000/svg">
<g id="Capa_x0020_1">
<path id="Vector" d="M50.5176 5.44346C50.5176 5.44346 57.1706 11.4629 58.7547 14.4726C60.3387 17.4823 61.2892 20.3336 61.2892 20.3336C61.2892 20.3336 51.468 10.0372 50.5176 5.44346ZM25.9648 33.006C22.0046 41.5599 24.5391 50.589 17.0941 52.8067C17.0941 52.8067 20.4206 51.6978 20.579 46.1536C20.7374 40.7679 20.8958 27.7786 28.1824 25.7193C35.4691 23.6601 35.7859 23.8185 44.815 23.8185C44.815 23.8185 30.0833 24.6105 25.9648 33.006ZM95.0295 50.9058C95.0295 50.9058 98.8312 48.3713 97.0888 38.867C95.3463 29.3627 81.565 25.5609 81.565 25.5609C90.1189 25.7193 93.287 29.5211 93.287 29.5211C94.0791 25.8778 89.9605 20.8088 89.9605 20.8088C85.6836 11.3045 79.5058 13.3637 78.8721 11.9381C78.0801 10.5124 75.0704 10.5124 75.0704 10.5124C75.0704 10.5124 74.912 9.4036 72.0607 7.18592C69.2094 4.96825 65.0909 6.86911 65.0909 6.86911C63.8236 4.33463 56.2202 4.80984 56.2202 4.80984C56.2202 4.80984 51.9432 3.06738 46.8743 1.16652C41.9637 -0.734347 40.0628 1.48333 40.0628 1.48333C44.023 -0.100725 48.6167 3.85941 48.6167 3.85941C33.7266 -0.417536 25.6479 8.45316 23.1135 7.81954C21.5294 7.50273 22.0046 5.76027 22.6382 4.49303C21.0542 7.34433 18.6781 13.2053 25.0143 11.7797C33.2514 10.0372 39.4292 16.5318 39.4292 16.5318C39.4292 16.5318 34.2018 14.4726 27.7072 14.3142C21.2126 14.1558 16.4604 21.7592 13.7675 23.8185C11.0747 25.8778 8.69857 25.0857 7.11452 22.3928C5.68887 19.6999 7.74814 16.3734 7.74814 16.3734C0.461495 25.5609 12.0251 27.7786 12.0251 27.7786C12.0251 27.7786 8.22336 32.8476 5.37206 33.3228C2.52076 33.798 1.09512 28.7291 1.09512 28.7291C0.936711 38.2334 8.85698 40.7679 8.85698 40.7679C3.6296 45.0448 0.619901 38.3918 0.619901 38.3918C-0.805748 53.2819 7.43133 52.6483 7.43133 52.6483C4.10482 53.1235 2.52077 51.2226 2.52077 51.2226C3.94641 57.5588 7.58974 59.7765 7.58974 59.7765C3.6296 59.3013 1.88714 54.2323 1.88714 54.2323C4.89685 68.8056 22.3214 62.4694 22.3214 62.4694C21.371 67.5384 12.1835 65.7959 12.1835 65.7959C19.6285 74.033 29.2913 61.519 28.9745 56.2916C28.6576 51.2226 27.3904 39.659 33.885 33.9564C40.5381 28.4122 51.1512 33.9564 51.1512 33.9564C51.1512 33.9564 52.7353 33.798 56.3786 32.214C60.0219 30.6299 70.9519 33.006 70.9519 33.006L71.9023 31.4219C74.7536 27.4618 65.5661 13.9974 65.5661 13.9974C65.5661 13.9974 68.5758 15.7398 72.8527 21.7592C77.1297 27.7786 72.2191 31.8972 72.0607 32.214C71.9023 32.5308 73.1696 32.0556 76.3377 33.6396C79.3474 35.2237 80.2978 46.1536 79.3474 49.1633C78.3969 52.173 79.5058 62.1526 81.0898 63.895C82.5155 65.6375 82.6739 68.6472 81.565 72.7657C80.4562 76.7259 81.0898 79.7356 81.0898 79.7356C81.0898 79.7356 83.4659 75.9338 83.9411 74.9834C84.4163 74.033 90.2773 69.9144 90.2773 69.9144C88.5349 65.3207 91.3862 65.0039 91.3862 64.6871C91.5446 64.3703 93.6039 64.5287 93.6039 64.5287C90.5941 61.0437 93.7623 56.2916 93.7623 56.2916C95.5047 55.658 96.772 53.7571 96.772 53.7571C93.9207 54.2323 95.1879 50.7474 95.1879 50.7474L95.0295 50.9058Z" fill="#7B5F46"/>
</g>
</svg>
