<svg width="72" height="71" viewBox="0 0 72 71" fill="none" xmlns="http://www.w3.org/2000/svg">
<path id="Vector" d="M54.0357 16.6173C45.9827 13.2597 39.5743 21.5114 39.5743 21.5114C44.5649 13.3735 48.1944 14.5117 56.2475 15.8206C64.3005 17.1864 67.8734 26.2347 67.8734 26.2347C64.4707 20.7147 62.0888 19.9749 53.979 16.6173H54.0357ZM34.8105 16.6173C34.8105 16.6173 35.3776 11.7232 40.7085 10.3005C46.0394 8.87777 52.2777 11.9508 52.2777 11.9508C42.6367 8.42251 34.7538 16.6173 34.7538 16.6173H34.8105ZM22.5041 19.6334C22.5041 19.6334 23.7517 9.50376 32.2585 5.69092C40.7652 1.93498 46.0394 7.05671 46.0394 7.05671C46.0394 7.05671 44.2246 6.60145 36.285 7.85343C28.3454 9.1054 22.5041 19.5765 22.5041 19.5765V19.6334ZM18.8746 26.69C18.8746 26.69 17.6269 27.8282 13.9974 19.7472C10.3678 11.6663 20.6893 6.48763 20.6893 6.48763C10.2544 18.6091 18.8746 26.69 18.8746 26.69ZM70.2552 44.6161C70.2552 44.6161 72.4103 37.4456 71.0492 30.4459C69.6881 23.5032 58.7428 13.7719 58.7428 13.7719C56.928 7.96724 49.3287 6.9429 49.3287 6.9429L42.8636 2.0488C31.5212 -2.39003 22.3907 4.55276 22.3907 4.55276C20.8027 3.64223 16.4927 4.55276 16.4927 4.55276C8.21277 6.37382 6.51143 15.536 6.73827 20.5439C6.96512 25.5518 15.8121 29.0802 15.8121 29.0802C11.3886 29.763 6.96512 26.3486 6.96512 26.3486C4.58323 28.0558 3.449 30.7305 1.52081 34.0881C0.613423 35.6246 0.5 42.5105 0.5 44.9006C0.5 47.2907 1.18054 50.3638 1.63423 54.1197C2.08792 57.8757 2.54162 56.7375 2.54162 56.7375L7.30539 69.7125L6.8517 62.3145C6.8517 62.3145 8.66647 58.9 7.64566 50.5914C6.62485 42.2828 10.3678 35.0555 12.296 32.2101C14.2242 29.3647 22.5041 30.2752 22.5041 30.2752C22.5041 30.2752 40.1414 31.7548 42.8636 30.6167C45.5857 29.4785 54.4327 30.9581 56.7579 32.4377C59.0831 33.9173 61.2381 47.0631 62.1455 52.071C63.0529 57.0789 63.5066 70.5662 63.5066 70.5662C63.5066 70.5662 62.9394 68.5175 66.2287 62.9405C69.518 57.3635 68.8942 56.5668 68.9509 56.1115C69.915 47.8598 70.3687 43.1365 70.1985 44.6161H70.2552Z" fill="#7B5F46"/>
</svg>
